<svg xmlns="http://www.w3.org/2000/svg" height="48" viewBox="0 96 960 960" width="48"><path d="M315.353 790q20 0 33.823-14.676Q363 760.647 363 740.647t-14-33.823Q335 693 315 693t-34.5 14Q266 721 266 741t14.676 34.5q14.677 14.5 34.677 14.5Zm0-331q20 0 33.823-14Q363 431 363 411t-14-34.5Q335 362 315 362t-34.5 14.676Q266 391.353 266 411.353t14.676 33.824Q295.353 459 315.353 459ZM480 624q20 0 34-14t14-34q0-20-14-34t-34-14q-20 0-34 14t-14 34q0 20 14 34t34 14Zm165.912 166q20.441 0 34.265-14.676Q694 760.647 694 740.647t-14.017-33.823Q665.966 693 645.941 693 625 693 611 707q-14 14-14 34t14.235 34.5q14.236 14.5 34.677 14.5ZM645 459q20 0 34.5-14t14.5-34q0-20-14.676-34.5-14.677-14.5-34.677-14.5t-33.824 14.676Q597 391.353 597 411.353t14 33.824Q625 459 645 459ZM99 957V194h763v763H99Z"/></svg>