<svg xmlns="http://www.w3.org/2000/svg" height="48" viewBox="0 96 960 960" width="48"><path d="M640.684 562q23.766 0 39.541-16.182Q696 529.635 696 507.018q0-22.618-15.886-39.318T640.798 451q-23.43 0-40.114 16.475Q584 483.95 584 507q0 22.625 16.947 38.812Q617.893 562 640.684 562ZM290 469h229v-82H290v82ZM141 959q-35-118-70-237.392-35-119.391-35-245.352 0-101.911 70.91-173.583Q177.819 231 279.095 231H505q32.275-37 77.337-58.5Q627.398 151 676 151q34.167 0 59.083 24.792Q760 200.583 760 234.5q0 6.283-5 27.5-3 8-5.5 17.314-2.5 9.315-4.5 18.152L819 371h105v321l-122 39-68 228H473v-80h-71v80H141Z"/></svg>